<svg xmlns="http://www.w3.org/2000/svg" version="1.1" xmlns:xlink="http://www.w3.org/1999/xlink" xmlns:svgjs="http://svgjs.dev/svgjs" width="1000" height="560" viewBox="0 0 1000 560"><g transform="matrix(1,0,0,1,-0.6060606060606233,0.0622280817402725)"><svg viewBox="0 0 396 222" data-background-color="#0a1627" preserveAspectRatio="xMidYMid meet" height="560" width="1000" xmlns="http://www.w3.org/2000/svg" xmlns:xlink="http://www.w3.org/1999/xlink"><g id="tight-bounds" transform="matrix(1,0,0,1,0.2400000000000091,-0.024668989547038223)"><svg viewBox="0 0 395.52 222.04933797909408" height="222.04933797909408" width="395.52"><g><svg viewBox="0 0 395.52 222.04933797909408" height="222.04933797909408" width="395.52"><g><svg viewBox="0 0 395.52 222.04933797909408" height="222.04933797909408" width="395.52"><g id="textblocktransform"><svg viewBox="0 0 395.52 222.04933797909408" height="222.04933797909408" width="395.52" id="textblock"><g><svg viewBox="0 0 395.52 222.04933797909408" height="222.04933797909408" width="395.52"><g transform="matrix(1,0,0,1,0,0)"><svg width="395.52" viewBox="0.83 -30.91 56.050000000000004 31.47" height="222.04933797909408" data-palette-color="#fe0039"><g class="undefined-text-0" data-fill-palette-color="primary" id="text-0"><path d="M0.83-26.59L4.1-25.07 12.13-11.84 12.13-5.3 8.25-3.37 7.81 0 24.95 0 25.27-3.42 21.19-5.4 21.19-12.16 28.91-25.07 31.69-26.54 32.28-30.37 20.73-30.37 20.14-26.54 22.56-25.02 18.87-18.04 15.23-25.1 17.07-26.59 17.75-30.4 1.61-30.4 0.83-26.59ZM44.5 0.56Q47.02 0.56 49.89-0.42 52.76-1.39 54.82-3.66 56.88-5.93 56.88-9.55L56.88-9.55Q56.88-12.13 55.41-14.03 53.93-15.92 51.9-17.13 49.88-18.33 46.73-19.8L46.73-19.8Q44.7-20.75 43.6-21.34 42.5-21.92 41.78-22.64 41.06-23.36 41.06-24.17L41.06-24.17Q41.06-25.49 41.92-26.25 42.77-27 44.36-27L44.36-27Q45.73-27 47.12-26.4 48.51-25.81 49.14-24.83L49.14-24.83 50.1-20.85 54.32-20.12Q54.42-21.41 54.71-25 55-28.59 55-28.96L55-28.96Q54.39-29.47 52.81-29.92 51.22-30.37 49.35-30.64 47.48-30.91 46.12-30.91L46.12-30.91Q42.77-30.91 40.06-29.68 37.35-28.44 35.79-26.17 34.23-23.9 34.23-20.92L34.23-20.92Q34.23-18.26 35.62-16.39 37.01-14.53 38.91-13.39 40.82-12.26 43.8-10.94L43.8-10.94Q45.73-10.08 46.79-9.51 47.85-8.94 48.56-8.22 49.27-7.5 49.27-6.62L49.27-6.62Q49.27-5.91 48.72-5.26 48.17-4.61 47.25-4.21 46.34-3.81 45.29-3.81L45.29-3.81Q43.72-3.81 42.27-4.24 40.82-4.66 40.13-5.42L40.13-5.42 39.11-9.99 34.79-10.69 33.96-1.61Q34.93-0.66 37.77-0.05 40.6 0.56 44.5 0.56L44.5 0.56Z" fill="#fe0039" data-fill-palette-color="primary"></path></g></svg></g></svg></g></svg></g></svg></g><g></g></svg></g><defs></defs></svg><rect width="395.52" height="222.04933797909408" fill="none" stroke="none" visibility="hidden"></rect></g></svg></g></svg>